<svg xmlns="http://www.w3.org/2000/svg" viewBox="0 0 100 100"><defs><radialGradient id="a" cx="49.5" cy="50" r="44.58" fx="49.5" fy="50" gradientUnits="userSpaceOnUse"><stop offset="0" stop-color="#666"/><stop offset=".37" stop-color="#636363"/><stop offset=".6" stop-color="#5a5a5a"/><stop offset=".8" stop-color="#4c4c4c"/><stop offset=".97" stop-color="#383838"/><stop offset="1" stop-color="#333"/></radialGradient></defs><circle cx="49.5" cy="50" r="44.58" fill="url(#a)" stroke="#4d4d4d" stroke-miterlimit="10"/><path fill="#e6e6e6" d="M40.23 24c.72-.11 1.32.1 1.92.47 2.07 1.51-.26 7.63-.23 10.1.12 14.28 12.61 24.27 26.44 23.24 2.33-.17 6.51-2.46 7.47.88 1.05 3.65-6.3 10.66-9.16 12.56-22.76 15.12-50.89-8.38-40.29-33.4 1.9-4.49 8.9-13.1 13.85-13.85M69.9 61.45c-2.59.13-5.24 0-7.84 0-9.25 0-23.26-13.36-23.26-22.68v-8.86c0-.09 1.28-2-.25-1.3-2.57 1.17-7.09 6.78-8.36 9.39C20.3 58.34 41.28 79.86 61.8 70.04c2.52-1.2 8.39-5.83 9.41-8.34.63-1.54-1.21-.26-1.3-.25Z"/></svg>