<svg xmlns="http://www.w3.org/2000/svg" viewBox="0 0 100 100"><defs><radialGradient id="a" cx="50" cy="50" r="44.58" fx="50" fy="50" gradientUnits="userSpaceOnUse"><stop offset="0" stop-color="#666"/><stop offset=".37" stop-color="#636363"/><stop offset=".6" stop-color="#5a5a5a"/><stop offset=".8" stop-color="#4c4c4c"/><stop offset=".97" stop-color="#383838"/><stop offset="1" stop-color="#333"/></radialGradient></defs><circle cx="50" cy="50" r="44.58" fill="url(#a)" stroke="#4d4d4d" stroke-miterlimit="10"/><g fill="#e6e6e6"><path d="M46.33 34.5c25.52-4.01 25.77 34.54.43 31.07-16.35-2.24-16.45-28.56-.43-31.07m2.56 3.03C30.83 39 36.28 67.65 54.04 61.84c13.54-4.44 9.54-25.5-5.15-24.31m21.19-9.6c1.88-.49 2.68.73 1.9 2.41-.19.4-5.92 6.13-6.32 6.32-1.2.55-1.91-.09-2.46-1.12-.18-.44 0-.76.18-1.15.35-.77 5.77-6.22 6.71-6.46ZM64.5 63.15c.63-.23.97.11 1.44.42.87.58 6.24 6.17 6.31 6.85.17 1.52-.78 2-2.17 1.64-.8-.21-6.4-5.79-6.71-6.46-.18-.39-.36-.71-.18-1.15l1.31-1.31Zm-29.83 4.81c-1.25 1.32-5.59 5.82-6.86 3.39-.61-1.88 4.3-5.7 6.33-7.63.62-.59 1.64-.62 2.21.02.02.02.04.05.06.07.43.53.43 1.29.05 1.86-.55.82-1.48 1.95-1.8 2.29Zm-6.08-40.09c.82-.27 1.32.04 1.99.44.38.22 5.5 5.34 5.81 5.8.65.98.69 1.48-.25 2.33-.67.54-1 .59-1.79.23-.39-.18-5.86-5.63-6.1-6.03-.63-1.06-.92-2.07.34-2.76Zm1.7 22.19v.21c0 .68-.55 1.24-1.24 1.24h-9.12c-1 0-1-3.02 0-3.02h8.79c.87 0 1.57.7 1.57 1.57"/><path d="M69.71 50c0-.83.68-1.51 1.51-1.51h8.85c1 0 1 3.02 0 3.02h-8.85c-.83 0-1.51-.68-1.51-1.51M50.77 30.43c-1.09.46-2.29-.38-2.29-1.56v-8.85c0-1 3.03-1 3.03 0v9.57c0 .37-.31.65-.74.84m-1.18 38.96c.45-.11.64-.12 1.37-.01.27.04.55.36.55 1.03v9.57c0 1-3.03 1-3.03 0v-9.19c0-.67.46-1.25 1.11-1.4"/></g></svg>